<svg aria-hidden="true" style="width:0;height:0;position:absolute;overflow:hidden" xmlns="http://www.w3.org/2000/svg"><defs><symbol id="icon-arrow" viewBox="0 0 84 32"><path d="M81.949 17.191a2 2 0 0 0 0-2.828L69.221 1.635a2 2 0 0 0-2.829 2.828l11.314 11.314-11.314 11.314a2 2 0 0 0 2.829 2.829l12.728-12.728zm-81.884.586h80.469v-4H.065v4z"/></symbol><symbol id="close-icon" viewBox="0 0 32 32"><path d="m17.253 16 7.369-7.369a.886.886 0 0 0-.047-1.207.89.89 0 0 0-1.206-.047L16 14.746 8.631 7.368A.892.892 0 0 0 7.369 8.63l7.378 7.369-7.378 7.369a.891.891 0 0 0-.05 1.304.89.89 0 0 0 1.304-.051l7.378-7.369 7.369 7.369a.885.885 0 0 0 1.206-.047.89.89 0 0 0 .047-1.206l-7.369-7.369z"/></symbol></defs></svg>