<svg version="1.0" xmlns="http://www.w3.org/2000/svg" width="93.333" height="93.333" viewBox="0 0 70 70"><path d="M33.2 3c-1.8 1.1-3.7 3.2-4.3 4.7-.6 1.6-1.5 3.5-2 4.3-.5.8-1.7 3.1-2.6 5-5.9 12.4-7.2 18-4.8 20 .8.7 1.5 2.6 1.5 4.2 0 2.1.6 3.1 2 3.5 1.3.3 2.1 1.6 2.4 3.7.7 4 2.6 19.7 2.6 20.8 0 .4 3.4.8 7.5.8 8.6 0 7.7 1.3 9.5-14 .8-7.6 1.5-9.8 3-10.9 1.2-.8 2-2.5 2-4.3 0-1.6.6-3.1 1.4-3.4 1-.4 1.4-2.4 1.5-6.7.1-7.7-1.9-11.2-8.8-16.2C39.3 11 36 5.4 37.4 3.1c1.2-1.9-1.1-1.9-4.2-.1zm8.3 12c6.8 4.7 9.7 8.6 9.3 12.9l-.3 3.6-6-.3c-3.3-.1-7.7-.7-9.7-1.3-7.2-1.9-11.5-8.2-8.5-12.3 1.4-1.9 1.5-1.9 3.8.7 2.7 3 9.5 6.2 10.3 4.8.3-.5-.8-1.4-2.5-2.1-1.6-.7-4.1-2.1-5.4-3.2-3.3-2.6-3.4-8.2-.3-11.5l2.3-2.4L35.8 8c1 2.8 2.6 4.9 5.7 7zM31 30.6c2 1 6.8 2 11.4 2.3 5 .4 8.1 1.1 8.4 1.8.2.8-.6 1.3-2.2 1.3-1.4 0-2.6.4-2.6 1 0 .5.5 1 1 1 .6 0 1 1.1 1 2.5V43H23v-5h10c6 0 10-.4 10-1s-4.5-1-11.5-1c-11.3 0-14.3-1-9.2-2.9 1.9-.8 2-1 .5-1.6-2.1-.8-2.2-1.4-.7-5.1l1-2.8 2.2 2.6c1.2 1.5 3.8 3.4 5.7 4.4zm1.8 15.6c-.3.7-1.1 1.3-1.8 1.3s-1.5-.6-1.7-1.3c-.3-.7.4-1.2 1.7-1.2 1.3 0 2 .5 1.8 1.2zm9 0c-.3.7-1.1 1.3-1.8 1.3s-1.5-.6-1.7-1.3c-.3-.7.4-1.2 1.7-1.2 1.3 0 2 .5 1.8 1.2zm-4.9 5.4c-1.4 1.4-1.7 1.4-2.9 0-1-1.3-1-1.9 0-3.2 1.2-1.4 1.5-1.4 2.9 0 1.4 1.5 1.4 1.7 0 3.2zm7.1-2.2c0 .3-.4.8-1 1.1-.5.3-1 .1-1-.4 0-.6.5-1.1 1-1.1.6 0 1 .2 1 .4zm-11.1 4c.9 1 .8 1.6-.4 2.6-2.1 1.7-5.1-.6-3.4-2.6.6-.8 1.5-1.4 1.9-1.4.4 0 1.3.6 1.9 1.4zm9 0c.9 1 .8 1.6-.4 2.6-2.1 1.7-5.1-.6-3.4-2.6.6-.8 1.5-1.4 1.9-1.4.4 0 1.3.6 1.9 1.4zm-5 7.2c-1.4 1.4-1.7 1.4-2.9 0-1-1.3-1-1.9 0-3.2 1.2-1.4 1.5-1.4 2.9 0 1.4 1.5 1.4 1.7 0 3.2zM33 62.5c1.1 1.3.8 1.5-1.4 1.5-2.5 0-3.3-1-1.9-2.3 1-1.1 1.9-.8 3.3.8zm8.8.3c.2.7-.7 1.2-2.3 1.2-2.4 0-2.6-.2-1.5-1.5 1.4-1.7 3.1-1.6 3.8.3zm-1 4.4c-.6 1.7-10 1.7-10.5 0-.4-.9 1.1-1.2 5.2-1.2s5.6.3 5.3 1.2z"/></svg>