<?xml version="1.0" standalone="no"?>
<!DOCTYPE svg PUBLIC "-//W3C//DTD SVG 20010904//EN"
 "http://www.w3.org/TR/2001/REC-SVG-20010904/DTD/svg10.dtd">
<svg version="1.0" xmlns="http://www.w3.org/2000/svg"
 width="70.000000pt" height="70.000000pt" viewBox="0 0 70.000000 70.000000"
 preserveAspectRatio="xMidYMid meet">
<metadata>
Created by potrace 1.14, written by Peter Selinger 2001-2017
</metadata>
<g transform="translate(0.000000,70.000000) scale(0.100000,-0.100000)"
fill="#000000" stroke="none">
<path d="M332 670 c-18 -11 -37 -32 -43 -47 -6 -16 -15 -35 -20 -43 -5 -8 -17
-31 -26 -50 -59 -124 -72 -180 -48 -200 8 -7 15 -26 15 -42 0 -21 6 -31 20
-35 13 -3 21 -16 24 -37 7 -40 26 -197 26 -208 0 -4 34 -8 75 -8 86 0 77 -13
95 140 8 76 15 98 30 109 12 8 20 25 20 43 0 16 6 31 14 34 10 4 14 24 15 67
1 77 -19 112 -88 162 -48 35 -81 91 -67 114 12 19 -11 19 -42 1z m83 -120 c68
-47 97 -86 93 -129 l-3 -36 -60 3 c-33 1 -77 7 -97 13 -72 19 -115 82 -85 123
14 19 15 19 38 -7 27 -30 95 -62 103 -48 3 5 -8 14 -25 21 -16 7 -41 21 -54
32 -33 26 -34 82 -3 115 l23 24 13 -41 c10 -28 26 -49 57 -70z m-105 -156 c20
-10 68 -20 114 -23 50 -4 81 -11 84 -18 2 -8 -6 -13 -22 -13 -14 0 -26 -4 -26
-10 0 -5 5 -10 10 -10 6 0 10 -11 10 -25 l0 -25 -125 0 -125 0 0 25 0 25 100
0 c60 0 100 4 100 10 0 6 -45 10 -115 10 -113 0 -143 10 -92 29 19 8 20 10 5
16 -21 8 -22 14 -7 51 l10 28 22 -26 c12 -15 38 -34 57 -44z m18 -156 c-3 -7
-11 -13 -18 -13 -7 0 -15 6 -17 13 -3 7 4 12 17 12 13 0 20 -5 18 -12z m90 0
c-3 -7 -11 -13 -18 -13 -7 0 -15 6 -17 13 -3 7 4 12 17 12 13 0 20 -5 18 -12z
m-49 -54 c-14 -14 -17 -14 -29 0 -10 13 -10 19 0 32 12 14 15 14 29 0 14 -15
14 -17 0 -32z m71 22 c0 -3 -4 -8 -10 -11 -5 -3 -10 -1 -10 4 0 6 5 11 10 11
6 0 10 -2 10 -4z m-111 -40 c9 -10 8 -16 -4 -26 -21 -17 -51 6 -34 26 6 8 15
14 19 14 4 0 13 -6 19 -14z m90 0 c9 -10 8 -16 -4 -26 -21 -17 -51 6 -34 26 6
8 15 14 19 14 4 0 13 -6 19 -14z m-50 -72 c-14 -14 -17 -14 -29 0 -10 13 -10
19 0 32 12 14 15 14 29 0 14 -15 14 -17 0 -32z m-39 -19 c11 -13 8 -15 -14
-15 -25 0 -33 10 -19 23 10 11 19 8 33 -8z m88 -3 c2 -7 -7 -12 -23 -12 -24 0
-26 2 -15 15 14 17 31 16 38 -3z m-10 -44 c-6 -17 -100 -17 -105 0 -4 9 11 12
52 12 41 0 56 -3 53 -12z"/>
</g>
</svg>
